<svg width="512" height="512" viewBox="0 0 512 512" fill="none" xmlns="http://www.w3.org/2000/svg">
<circle cx="256" cy="256" r="256" fill="#0302DC"/>
<path d="M180.404 333.312C170.538 333.312 161.437 331.506 153.099 327.893C144.901 324.141 138.162 318.861 132.881 312.052L151.64 289.541C159.561 300.241 168.593 305.59 178.736 305.59C192.493 305.59 199.371 297.531 199.371 281.412V212.004H148.097V184.908H232.929V279.536C232.929 297.462 228.482 310.94 219.589 319.972C210.696 328.865 197.634 333.312 180.404 333.312Z" fill="#B5FFFC"/>
<path d="M294.061 212.421H247.373V184.908H374.516V212.421H327.827V330.811H294.061V212.421Z" fill="#B5FFFC"/>
</svg>
