<svg width="93" height="93" viewBox="0 0 93 93" version="1.1" xmlns="http://www.w3.org/2000/svg" xmlns:xlink="http://www.w3.org/1999/xlink">
<title>App Icon</title>
<desc>Created using Figma</desc>
<g id="Canvas" transform="translate(2700 1075)">
<g id="App Icon">
<g id="Ellipse">
<g id="Ellipse">
<use xlink:href="#path0_fill" transform="translate(-2700 -1075)" fill="url(#paint0_linear)"/>
</g>
<g id="Group">
<g id="Group">
<g id="Vector">
<use xlink:href="#path1_fill" transform="translate(-2696 -1051)" fill="url(#paint1_linear)" fill-opacity="0.15"/>
</g>
</g>
</g>
</g>
<g id="ball">
<g id="Group">
<g id="Group">
<g id="Vector">
<use xlink:href="#path2_fill" transform="translate(-2671 -1046)" fill="#002101"/>
</g>
<g id="Vector">
<use xlink:href="#path3_fill" transform="translate(-2660.4 -1034.63)" fill="#002101"/>
</g>
</g>
</g>
</g>
<g id="crown">
<g id="Vector">
<use xlink:href="#path4_fill" transform="matrix(0.85981 -0.510615 0.510615 0.85981 -2676 -1047.32)" fill="#FFDA44"/>
</g>
</g>
</g>
</g>
<defs>
<linearGradient id="paint0_linear" x1="0" y1="0" x2="1" y2="0" gradientUnits="userSpaceOnUse" gradientTransform="matrix(29 82 -82 29 58.5 -3.5)">
<stop offset="0" stop-color="#07F5CD"/>
<stop offset="1" stop-color="#00E676"/>
</linearGradient>
<linearGradient id="paint1_linear" x1="0" y1="0" x2="1" y2="0" gradientUnits="userSpaceOnUse" gradientTransform="matrix(5.20475e-15 45 -85 2.75546e-15 85 -2.75546e-15)">
<stop offset="0"/>
<stop offset="1" stop-color="#000000" stop-opacity="0"/>
</linearGradient>
<path id="path0_fill" d="M 93 46.5C 93 72.1812 72.1812 93 46.5 93C 20.8188 93 0 72.1812 0 46.5C 0 20.8188 20.8188 0 46.5 0C 72.1812 0 93 20.8188 93 46.5Z"/>
<path id="path1_fill" d="M 84.7438 16.8409L 81.4215 14.1978C 81.0769 13.9098 80.5114 13.9098 80.1668 14.1978L 76.8446 16.8409C 76.6767 16.9811 76.5884 17.1657 76.5884 17.3651L 76.5884 30.544C 76.5884 30.95 76.1907 31.2823 75.7048 31.2823L 70.8274 31.2823C 70.3415 31.2823 69.9439 31.6145 69.9439 32.0206L 69.9439 36.133C 69.9439 36.5391 69.5463 36.8714 69.0603 36.8714L 68.6097 36.8714C 68.1237 36.8714 67.7261 36.5391 67.7261 36.133L 67.7261 4.20852C 67.7261 3.80244 67.3285 3.47021 66.8425 3.47021L 65.6674 3.47021C 65.1814 3.47021 64.7838 3.13797 64.7838 2.7319L 64.7838 0.738458C 64.7838 0.332388 64.3862 0.000148185 63.9002 0.000148185L 59.1112 0.000148185C 58.6253 0.000148185 58.2277 0.332388 58.2277 0.738458L 58.2277 2.7319C 58.2277 3.13797 57.83 3.47021 57.3441 3.47021L 56.2131 3.47021C 55.7271 3.47021 55.3295 3.80244 55.3295 4.20852L 55.3207 29.8056C 55.3207 30.507 53.8275 30.8098 53.3061 30.2634L 49.4626 26.2396C 49.1091 25.8705 48.4288 25.8705 48.0754 26.2396L 42.6767 31.9246C 42.553 32.0574 42.4823 32.2199 42.4823 32.3823L 42.4823 36.7457C 42.4823 37.4028 41.5281 37.735 40.9714 37.27L 39.0806 35.6751C 38.7361 35.3873 38.1705 35.3873 37.8259 35.6751L 35.5817 37.5578C 35.025 38.023 34.0707 37.6981 34.0707 37.0336L 34.0707 0.73831C 34.0707 0.332239 33.6731 -5.22729e-07 33.1871 -5.22729e-07L 28.3098 -5.22729e-07C 27.8238 -5.22729e-07 27.4262 0.332239 27.4262 0.73831L 27.4262 36.1256C 27.4262 36.5317 27.0286 36.8639 26.5426 36.8639L 26.092 36.8639C 25.606 36.8639 25.2084 36.5317 25.2084 36.1256L 25.2084 22.7547C 25.2084 22.3486 24.8108 22.0164 24.3248 22.0164L 23.3352 22.0164C 22.8493 22.0164 22.4517 21.6842 22.4517 21.2781L 22.4517 14.7884C 22.4517 14.3824 22.0541 14.0501 21.5681 14.0501L 20.6933 14.0501C 20.2074 14.0501 19.8098 13.7179 19.8098 13.3118L 19.8098 6.04683C 19.8098 5.64076 19.4122 5.30852 18.9262 5.30852L 18.4226 5.30852C 17.9366 5.30852 17.539 5.64076 17.539 6.04683L 17.539 13.3118C 17.539 13.7179 17.1414 14.0501 16.6554 14.0501L 15.7807 14.0501C 15.2947 14.0501 14.8971 14.3824 14.8971 14.7884L 14.8971 21.2781C 14.8971 21.6842 14.2698 22.009 13.7749 22.009L 13.1034 22.009C 12.5644 22.009 12.1315 22.3707 12.1315 22.8212L 12.1315 35.0624C 12.1315 35.7638 11.3098 36.0738 10.7885 35.5275L 7.0421 31.5554C 6.62682 31.1198 5.93763 31.1198 5.52235 31.5554L 0.194387 37.1666C 0.0706861 37.2994 0 37.4619 0 37.6243L 0 44.2617C 0 44.6678 0.397609 45 0.883576 45L 42.5 45L 84.1164 45C 84.6024 45 85 44.6678 85 44.2617L 85 17.3577C 85 17.1658 84.9116 16.9812 84.7438 16.8409Z"/>
<path id="path2_fill" d="M 35.9529 17.0529C 35.7727 13.6735 34.6817 10.535 32.8872 7.89821C 30.4282 4.28744 26.6872 1.63184 22.3302 0.550224C 20.9379 0.204484 19.4959 6.38979e-11 18 6.38979e-11C 16.0656 6.38979e-11 14.2039 0.316144 12.4565 0.883857C 8.23257 2.25605 4.70144 5.15112 2.48995 8.91659C 1.26717 10.991 0.449294 13.3238 0.146626 15.8206C 0.0605336 16.5363 0 17.2614 0 18C 0 21.9834 1.31694 25.652 3.51498 28.6386C 5.69016 31.5928 8.73567 33.8596 12.2816 35.0543C 14.0815 35.6583 15.9997 36 18 36C 20.7038 36 23.2584 35.3839 25.5613 34.3117C 28.062 33.1466 30.2574 31.4354 31.9779 29.3166C 34.4867 26.2224 36 22.2834 36 18C 36 17.6812 35.965 17.3677 35.9529 17.0529ZM 32.298 17.0529L 28.5974 23.4619L 31.0362 27.6861C 29.3938 29.8883 27.2159 31.6628 24.6937 32.809L 22.8333 29.5924L 15.4347 29.5924L 13.16 33.5314C 9.62619 32.4283 6.60623 30.1453 4.5602 27.1493L 7.40124 22.2309L 3.70197 15.822L 1.90075 15.822C 2.24109 13.2928 3.14909 10.9413 4.51446 8.91794L 9.6921 8.91794L 13.3914 2.50762L 13.3456 2.42287C 14.8213 1.97892 16.3817 1.73543 18 1.73543C 19.1757 1.73543 20.3231 1.86861 21.4289 2.10673L 21.1975 2.50628L 24.8968 8.91659L 31.4828 8.91659C 33.0702 11.2641 34.0387 14.0543 34.2149 17.0529L 32.298 17.0529Z"/>
<path id="path3_fill" d="M 3.70062 4.41342e-07L 1.53945e-07 6.40897L 3.70062 12.8166L 11.0992 12.8166L 14.7998 6.40897L 11.0992 4.41342e-07L 3.70062 4.41342e-07Z"/>
<path id="path4_fill" d="M 16.3311 3.77267C 16.3337 3.82173 16.3303 3.87167 16.3185 3.92127L 15.2699 8.32127C 15.2171 8.54293 15.0277 8.6988 14.81 8.7L 8.51837 8.73333C 8.51754 8.73333 8.51678 8.73333 8.51595 8.73333L 2.2243 8.73333C 2.00543 8.73333 1.81471 8.57693 1.76184 8.35413L 0.713237 3.93747C 0.701163 3.88653 0.697667 3.8352 0.700718 3.78487C 0.295069 3.6508 0 3.2526 0 2.78333C 0 2.20433 0.448991 1.73333 1.00093 1.73333C 1.55288 1.73333 2.00187 2.20433 2.00187 2.78333C 2.00187 3.1094 1.85945 3.40113 1.63645 3.59387L 2.94929 4.98147C 3.2811 5.3322 3.74153 5.53327 4.21257 5.53327C 4.76953 5.53327 5.30057 5.2558 5.63498 4.79093L 7.79255 1.792C 7.6113 1.602 7.49907 1.33947 7.49907 1.05C 7.49907 0.471 7.94806 0 8.5 0C 9.05194 0 9.50093 0.471 9.50093 1.05C 9.50093 1.3308 9.39468 1.58567 9.2229 1.77427C 9.22347 1.77507 9.22417 1.77573 9.22474 1.7766L 11.3667 4.7838C 11.701 5.25313 12.2339 5.53333 12.7925 5.53333C 13.2678 5.53333 13.7148 5.33913 14.051 4.98647L 15.3721 3.6006C 15.1444 3.40793 14.9981 3.1134 14.9981 2.78333C 14.9981 2.20433 15.4471 1.73333 15.9991 1.73333C 16.551 1.73333 17 2.20433 17 2.78333C 17 3.24007 16.7201 3.62853 16.3311 3.77267ZM 15.1676 10.3C 15.1676 10.0239 14.9542 9.8 14.691 9.8L 2.36202 9.8C 2.09879 9.8 1.88538 10.0239 1.88538 10.3L 1.88538 11.5C 1.88538 11.7761 2.09879 12 2.36202 12L 14.691 12C 14.9542 12 15.1676 11.7761 15.1676 11.5L 15.1676 10.3Z"/>
</defs>
</svg>
