<svg width="500px" height="500px" xmlns="http://www.w3.org/2000/svg">

 <g>
  <title>background</title>
  <rect fill="none" id="canvas_background" height="148" width="79" y="-1" x="-1"/>
 </g>
 <g>
  <title>Layer 1</title>
  <g id="svg_1" fill-rule="evenodd" fill="none">
   <path id="svg_2" fill="#8E714E" d="m483.48,62.121997c-0.46,0.092 -0.922,1.107 -0.922,1.66c-0.092,3.692 -0.184,13.474 -0.184,20.118c0,0.185 0.276,0.554 0.553,0.554c1.384,0.092 4.706,0.184 7.567,0.184c3.968,0 6.275,-0.553 7.568,-1.106c3.321,-1.662 4.89,-5.261 4.89,-9.23c0,-8.95 -6.275,-12.365 -15.596,-12.365c-0.646,-0.092 -2.49,-0.092 -3.876,0.185zm23.81,41.25c0,-9.136 -6.737,-14.212 -18.918,-14.212c-0.554,0 -4.43,-0.092 -5.353,0.092c-0.277,0.093 -0.645,0.278 -0.645,0.555c0,6.551 -0.093,16.98 0.184,21.04c0.184,1.753 1.477,4.245 3.046,4.983c1.66,0.923 5.444,1.107 8.028,1.107c7.29,0 13.658,-4.06 13.658,-13.565zm-42.634,-46.325c0.922,0 3.69,0.276 10.796,0.276c6.737,0 12.089,-0.184 18.641,-0.184c8.028,0 19.102,2.86 19.102,14.857c0,5.906 -4.153,10.613 -9.597,12.92c-0.276,0.092 -0.276,0.276 0,0.368c7.751,1.939 14.581,6.737 14.581,15.78c0,8.86 -5.537,14.489 -13.566,17.996c-4.891,2.122 -10.981,2.86 -17.164,2.86c-4.707,0 -17.349,-0.553 -24.362,-0.368c-0.738,-0.278 0.646,-3.6 1.291,-4.153c1.662,-0.093 2.953,-0.185 4.707,-0.739c2.492,-0.645 2.768,-1.384 3.137,-5.167c0.185,-3.23 0.185,-14.674 0.185,-22.794c0,-11.166 0.093,-18.733 0,-22.424c-0.092,-2.86 -1.107,-3.784 -3.137,-4.338c-1.57,-0.276 -4.153,-0.646 -6.276,-0.922c-0.462,-0.462 1.107,-3.6 1.662,-3.968zm-53.248,57.399c2.216,1.752 6.553,2.49 10.429,2.49c4.983,0 9.966,-0.921 14.765,-5.26c4.891,-4.428 8.305,-11.257 8.305,-22.146c0,-10.429 -3.968,-18.919 -12.089,-23.901c-4.614,-2.862 -10.52,-4.06 -17.349,-4.06c-2.03,0 -3.968,0.092 -5.167,0.645c-0.278,0.185 -0.923,1.015 -0.923,1.476c-0.185,1.846 -0.185,16.057 -0.185,24.363c0,8.582 0,20.579 0.185,21.963c0,1.385 0.645,3.507 2.03,4.43l-0.001,0zm-20.948,-57.4c1.754,0 8.49,0.277 11.72,0.277c5.815,0 9.967,-0.276 20.948,-0.276c9.228,0 16.98,2.491 22.517,7.197c6.736,5.814 10.244,13.843 10.244,23.624c0,13.935 -6.368,21.964 -12.736,26.578c-6.366,4.706 -14.672,7.474 -26.484,7.474c-6.275,0 -17.072,-0.184 -26.024,-0.277l-0.092,0c-0.461,-0.83 0.738,-4.06 1.476,-4.152c2.4,-0.277 3.046,-0.37 4.246,-0.83c1.937,-0.739 2.307,-1.754 2.584,-5.168c0.276,-6.368 0.184,-14.027 0.184,-22.702c0,-6.182 0.092,-18.272 -0.093,-22.148c-0.276,-3.229 -1.66,-4.06 -4.429,-4.614c-1.384,-0.276 -3.23,-0.646 -5.813,-0.922c-0.37,-0.647 1.291,-3.507 1.752,-4.06l0,-0.001z"/>
   <path id="svg_3" fill="#442D22" d="m278.8,118.043997c-2.307,-0.277 -3.968,-0.645 -5.998,-1.568c-0.277,-0.185 -0.739,-1.107 -0.739,-1.477c-0.184,-3.23 -0.184,-12.458 -0.184,-18.64c0,-4.984 -0.83,-9.321 -2.953,-12.366c-2.492,-3.508 -6.09,-5.537 -10.705,-5.537c-4.06,0 -9.505,2.768 -14.027,6.644c-0.092,0.092 -0.83,0.739 -0.738,-0.277c0,-1.015 0.185,-3.045 0.277,-4.43c0.093,-1.292 -0.646,-1.937 -0.646,-1.937c-2.953,1.476 -11.258,3.414 -14.304,3.69c-2.214,0.463 -2.768,2.585 -0.46,3.323l0.092,0c2.49,0.738 4.152,1.569 5.443,2.4c0.923,0.738 0.831,1.753 0.831,2.584c0.092,6.92 0.092,17.533 -0.184,23.347c-0.092,2.307 -0.738,3.137 -2.4,3.506l0.185,-0.092c-1.292,0.277 -2.307,0.553 -3.876,0.738c-0.554,0.554 -0.554,3.507 0,4.153c1.015,0 6.367,-0.277 10.798,-0.277c6.09,0 9.228,0.277 10.796,0.277c0.646,-0.738 0.831,-3.507 0.462,-4.153c-1.754,-0.092 -3.046,-0.276 -4.245,-0.646c-1.661,-0.37 -2.123,-1.199 -2.216,-3.137c-0.183,-4.892 -0.183,-15.227 -0.183,-22.24c0,-1.938 0.553,-2.861 1.106,-3.415c2.123,-1.845 5.538,-3.137 8.583,-3.137c2.953,0 4.89,0.923 6.367,2.123c2.03,1.66 2.676,4.06 2.953,5.813c0.461,3.968 0.277,11.812 0.277,18.641c0,3.691 -0.277,4.614 -1.66,5.075c-0.647,0.277 -2.308,0.647 -4.246,0.83c-0.646,0.647 -0.461,3.508 0,4.154c2.676,0 5.814,-0.277 10.428,-0.277c5.721,0 9.413,0.277 10.89,0.277c0.46,-0.554 0.645,-3.23 0.276,-3.969zm25.562,-35.25c-4.89,0 -7.936,3.783 -7.936,9.688c0,5.999 2.676,12.92 10.243,12.92c1.292,0 3.692,-0.554 4.798,-1.846c1.754,-1.66 2.954,-4.983 2.954,-8.49c0,-7.659 -3.784,-12.273 -10.059,-12.273l0,0.001zm-0.646,40.787c-1.845,0 -3.138,0.554 -3.968,1.016c-3.876,2.49 -5.629,4.89 -5.629,7.752c0,2.675 1.015,4.797 3.23,6.643c2.676,2.307 6.367,3.415 11.073,3.415c9.413,0 13.566,-5.076 13.566,-10.058c0,-3.508 -1.754,-5.815 -5.352,-7.106c-2.584,-1.108 -7.29,-1.662 -12.92,-1.662zm0.646,23.994c-5.629,0 -9.69,-1.2 -13.196,-3.876c-3.415,-2.584 -4.891,-6.46 -4.891,-9.136c0,-0.738 0.185,-2.769 1.846,-4.614c1.014,-1.108 3.23,-3.23 8.49,-6.829c0.184,-0.092 0.276,-0.184 0.276,-0.37c0,-0.184 -0.185,-0.369 -0.369,-0.46c-4.337,-1.661 -5.629,-4.338 -5.999,-5.814l0,-0.185c-0.091,-0.554 -0.276,-1.107 0.555,-1.661c0.646,-0.461 1.569,-1.015 2.583,-1.66c1.569,-0.924 3.23,-1.939 4.245,-2.77c0.185,-0.184 0.185,-0.368 0.185,-0.553c0,-0.185 -0.185,-0.37 -0.37,-0.461c-6.458,-2.123 -9.688,-6.922 -9.688,-14.12c0,-4.706 2.122,-8.951 5.905,-11.627c2.584,-2.03 9.044,-4.522 13.289,-4.522l0.277,0c4.337,0.092 6.736,1.015 10.15,2.215c1.846,0.646 3.6,0.922 6,0.922c3.598,0 5.167,-1.107 6.458,-2.398c0.093,0.184 0.278,0.646 0.37,1.845c0.092,1.2 -0.277,2.953 -1.2,4.245c-0.738,1.015 -2.399,1.754 -4.06,1.754l-0.462,0c-1.661,-0.185 -2.4,-0.37 -2.4,-0.37l-0.368,0.185c-0.092,0.185 0,0.369 0.092,0.646l0.093,0.185c0.184,0.83 0.553,3.321 0.553,3.968c0,7.567 -3.045,10.888 -6.275,13.38c-3.138,2.307 -6.736,3.783 -10.797,4.153c-0.092,0 -0.46,0 -1.292,0.092c-0.461,0 -1.107,0.093 -1.2,0.093l-0.092,0c-0.738,0.184 -2.583,1.107 -2.583,2.675c0,1.384 0.83,3.046 4.798,3.323c0.83,0.092 1.66,0.092 2.584,0.185c5.26,0.368 11.812,0.83 14.857,1.845c4.245,1.568 6.921,5.352 6.921,9.874c0,6.83 -4.89,13.197 -13.011,17.164c-3.968,1.754 -7.937,2.677 -12.274,2.677zm52.6,-64.32c-1.937,0 -3.691,0.46 -4.983,1.383c-3.598,2.215 -5.444,6.645 -5.444,13.104c0,12.09 6.09,20.58 14.765,20.58c2.584,0 4.614,-0.739 6.367,-2.215c2.676,-2.216 4.061,-6.645 4.061,-12.828c0,-11.996 -5.999,-20.025 -14.765,-20.025l-0.001,0.001zm1.662,39.496c-15.688,0 -21.317,-11.535 -21.317,-22.332c0,-7.567 3.045,-13.381 9.135,-17.534c4.338,-2.676 9.506,-4.152 14.12,-4.152c11.996,0 20.394,8.582 20.394,20.948c0,8.397 -3.322,15.041 -9.69,19.102c-3.045,2.03 -8.305,3.968 -12.643,3.968l0.001,0zm-164.446,-39.497c-1.938,0 -3.691,0.461 -4.984,1.384c-3.598,2.215 -5.444,6.645 -5.444,13.104c0,12.09 6.09,20.58 14.765,20.58c2.584,0 4.614,-0.739 6.368,-2.215c2.675,-2.216 4.06,-6.645 4.06,-12.828c0,-11.996 -5.906,-20.025 -14.765,-20.025zm166.107,78.994c-15.688,0 -21.317,-11.535 -21.317,-22.332c0,-7.567 3.045,-13.381 9.135,-17.534c4.338,-2.676 9.506,-4.152 14.12,-4.152c11.997,0 20.394,8.582 20.394,20.948c0,8.397 -3.322,15.041 -9.69,19.102c-2.953,2.03 -8.213,3.968 -12.642,3.968zm-105.478,-0.923c-0.185,-0.276 -0.37,-1.107 -0.277,-2.122c0,-0.739 0.185,-1.2 0.277,-1.384c1.938,-0.278 2.953,-0.555 4.06,-0.831c1.846,-0.462 2.584,-1.476 2.676,-3.783c0.278,-5.537 0.278,-16.058 0.185,-23.348l0,-0.185c0,-0.83 0,-1.846 -1.015,-2.584c-1.477,-0.922 -3.23,-1.752 -5.537,-2.4c-0.83,-0.275 -1.384,-0.737 -1.292,-1.29c0,-0.554 0.554,-1.2 1.754,-1.385c3.045,-0.277 10.98,-2.214 14.118,-3.599c0.185,0.184 0.462,0.739 0.462,1.477l-0.092,1.014c-0.093,1.016 -0.185,2.216 -0.185,3.415c0,0.369 0.37,0.646 0.738,0.646c0.185,0 0.37,-0.092 0.554,-0.185c5.906,-4.614 11.258,-6.275 14.026,-6.275c4.523,0 8.03,2.123 10.706,6.552c0.184,0.278 0.369,0.37 0.646,0.37c0.184,0 0.46,-0.092 0.553,-0.277c5.445,-4.153 10.89,-6.645 14.488,-6.645c8.582,0 13.658,6.368 13.658,17.165c0,3.045 0,7.013 -0.092,10.613c0,3.229 -0.092,6.182 -0.092,8.305c0,0.46 0.645,1.937 1.66,2.214c1.292,0.646 3.046,0.923 5.353,1.292l0.092,0c0.185,0.646 -0.184,3.045 -0.553,3.507c-0.554,0 -1.385,0 -2.307,-0.092a136.208,136.208 0 0 0 -7.014,-0.185c-5.721,0 -8.674,0.092 -11.536,0.277c-0.183,-0.738 -0.276,-2.953 0,-3.507c1.662,-0.276 2.492,-0.554 3.508,-0.83c1.846,-0.554 2.307,-1.385 2.4,-3.784c0,-1.753 0.368,-16.703 -0.186,-20.302c-0.553,-3.691 -3.322,-8.028 -9.413,-8.028c-2.307,0 -5.905,0.923 -9.412,3.598c-0.184,0.185 -0.37,0.646 -0.37,0.923l0,0.093c0.37,1.937 0.37,4.153 0.37,7.567l0,5.998c0,4.153 -0.093,8.029 0,10.981c0,2.031 1.2,2.492 2.215,2.862c0.554,0.091 0.922,0.184 1.384,0.276c0.83,0.185 1.661,0.37 2.953,0.646c0.185,0.37 0.185,1.569 -0.092,2.584c-0.093,0.554 -0.278,0.83 -0.37,0.923c-3.137,-0.092 -6.367,-0.185 -11.073,-0.185c-1.384,0 -3.784,0.093 -5.814,0.093c-1.662,0 -3.23,0.092 -4.152,0.092c-0.093,-0.185 -0.278,-0.83 -0.278,-1.846c0,-0.83 0.185,-1.476 0.37,-1.661c0.461,-0.092 0.83,-0.184 1.292,-0.184c1.106,-0.185 2.03,-0.37 2.952,-0.554c1.57,-0.461 2.123,-1.292 2.215,-3.322c0.277,-4.614 0.554,-17.81 -0.092,-21.133c-1.107,-5.352 -4.152,-8.028 -9.044,-8.028c-2.86,0 -6.46,1.384 -9.412,3.6c-0.462,0.368 -0.831,1.29 -0.831,2.121l0,5.445c0,6.644 0,14.95 0.092,18.549c0.093,1.106 0.461,2.399 2.584,2.86c0.462,0.092 1.2,0.277 2.123,0.37l1.66,0.276c0.186,0.554 0.093,2.769 -0.276,3.507c-0.923,0 -2.03,-0.092 -3.323,-0.092c-1.937,-0.093 -4.429,-0.185 -7.197,-0.185c-3.23,0 -5.537,0.092 -7.383,0.185c-1.292,-0.185 -2.307,-0.185 -3.414,-0.185z"/>
   <path id="svg_4" fill="#FFF" d="m41.82,143.975997l-3.783,-1.293s0.462,-19.286 -6.46,-20.67c-4.613,-5.353 0.74,-227.013 17.35,-0.739c0,0 -5.722,2.86 -6.737,7.752c-1.108,4.799 -0.37,14.95 -0.37,14.95z"/>
   <path id="svg_5" fill="#A6A385" d="m41.82,143.975997l-3.783,-1.293s0.462,-19.286 -6.46,-20.67c-4.613,-5.353 0.74,-227.013 17.35,-0.739c0,0 -5.722,2.86 -6.737,7.752c-1.108,4.799 -0.37,14.95 -0.37,14.95z"/>
   <path id="svg_6" fill="#FFF" d="m43.851,125.334997s33.13,-21.779 25.377,-67.09c-7.474,-32.943 -25.1,-43.74 -27.038,-47.893c-2.122,-2.953 -4.153,-8.12 -4.153,-8.12l1.385,91.634c0,0.093 -2.861,28.054 4.43,31.47"/>
   <path id="svg_7" fill="#499D4A" d="m43.851,125.334997s33.13,-21.779 25.377,-67.09c-7.474,-32.943 -25.1,-43.74 -27.038,-47.893c-2.122,-2.953 -4.153,-8.12 -4.153,-8.12l1.385,91.634c0,0.093 -2.861,28.054 4.43,31.47"/>
   <path id="svg_8" fill="#FFF" d="m36.1,126.533997s-31.1,-21.225 -29.254,-58.598c1.753,-37.374 23.716,-55.738 27.961,-59.06c2.769,-2.953 2.861,-4.061 3.046,-7.014c1.938,4.153 1.569,62.106 1.845,68.934c0.83,26.3 -1.476,50.756 -3.598,55.738z"/>
   <path id="svg_9" fill="#58AA50" d="m36.1,126.533997s-31.1,-21.225 -29.254,-58.598c1.753,-37.374 23.716,-55.738 27.961,-59.06c2.769,-2.953 2.861,-4.061 3.046,-7.014c1.938,4.153 1.569,62.106 1.845,68.934c0.83,26.3 -1.476,50.756 -3.598,55.738z"/>
  </g>
 </g>
</svg>
